<?xml version="1.0" encoding="UTF-8"?>
<svg id="_Слой_1" data-name="Слой 1" xmlns="http://www.w3.org/2000/svg" viewBox="0 0 258.73 56.4">
  <defs>
    <style>
      .cls-1 {
        fill: #b39ddb;
      }

      .cls-2 {
        fill: #fff;
      }
    </style>
  </defs>
  <g id="_Слой_15" data-name=" Слой 15">
    <path class="cls-1" d="M32.02,35.22c-.5,0-1.04-.04-1.6-.11l-1.5-.19,1.31-.75c.12-.07,2.96-1.76,2.05-5.98-.24-1.12-.53-2.22-.79-3.27-.86-3.39-1.62-6.33-.69-8.16,1.14-2.29,3.21-3.46,6.32-3.58h.36l.3.71-.3.26c-.43.34-2.56,2.18-2.01,5.55.11.69.38,1.62.67,2.69,1.02,3.64,2.42,8.63.19,11.22-.92,1.06-2.37,1.6-4.31,1.6h0ZM31.74,34.21c1.78.05,3.07-.36,3.83-1.25,1.87-2.18.57-6.87-.4-10.29-.31-1.1-.58-2.06-.7-2.8-.44-2.65.57-4.5,1.41-5.55-2.03.32-3.38,1.27-4.2,2.9-.75,1.5-.05,4.27.77,7.46.27,1.06.55,2.17.79,3.3.7,3.19-.54,5.2-1.51,6.22h.01Z"/>
    <path class="cls-1" d="M35.12,38.52c-1.72,0-3.41-1.13-4.98-3.35l-.88-1.23,1.44.46c.13.04,3.3,1,5.78-2.55.66-.94,1.28-1.89,1.87-2.8,1.91-2.94,3.57-5.47,5.54-6.03,2.46-.7,4.73.03,6.91,2.24l.26.27-.34.71-.39-.05c-.54-.09-3.34-.4-5.44,2.28-.43.54-.93,1.37-1.52,2.32-1.99,3.22-4.71,7.62-8.14,7.73h-.12.01ZM31.7,35.54c1.17,1.35,2.33,1.99,3.52,1.97,2.87-.09,5.44-4.23,7.3-7.26.61-.98,1.13-1.82,1.59-2.41,1.66-2.11,3.7-2.63,5.05-2.71-1.62-1.28-3.22-1.63-4.98-1.13-1.62.46-3.17,2.84-4.97,5.62-.59.92-1.23,1.87-1.9,2.83-1.89,2.68-4.18,3.12-5.62,3.1h.01Z"/>
    <path class="cls-1" d="M51.27,44.09l-.24-.32c-.31-.44-2.05-2.68-5.41-2.32-.69.07-1.63.28-2.73.53-3.69.81-8.76,1.93-11.21-.46-1.28-1.23-1.66-3.25-1.16-5.99l.27-1.48.67,1.35c.07.12,1.58,3.06,5.85,2.38,1.13-.18,2.25-.39,3.31-.61,3.43-.67,6.4-1.24,8.19-.22,2.22,1.28,3.27,3.41,3.21,6.52v.36l-.75.26h.01ZM46.35,40.4c2.21,0,3.73.97,4.62,1.78-.2-2.05-1.06-3.45-2.65-4.36-1.45-.84-4.26-.3-7.49.34-1.08.22-2.2.43-3.34.61-3.23.51-5.16-.84-6.13-1.87-.15,1.78.19,3.08,1.02,3.89,2.06,1.99,6.82.96,10.29.19,1.12-.24,2.1-.46,2.84-.54.3-.03.58-.04.85-.04h-.01Z"/>
    <path class="cls-1" d="M28.94,35.22c-1.95,0-3.39-.54-4.31-1.6-2.24-2.59-.84-7.58.19-11.22.31-1.08.57-2.01.67-2.69.57-3.37-1.58-5.21-2.01-5.55l-.28-.23.24-.73h.42c3.11.11,5.17,1.27,6.32,3.57.92,1.83.18,4.77-.69,8.16-.27,1.05-.55,2.14-.79,3.27-.92,4.22,1.93,5.91,2.05,5.98l1.31.75-1.5.19c-.57.07-1.1.11-1.6.11h-.01ZM25.07,14.31c.86,1.05,1.86,2.91,1.43,5.55-.12.74-.39,1.7-.7,2.8-.96,3.42-2.28,8.11-.4,10.29.75.88,2.03,1.31,3.83,1.25-.98-1.02-2.21-3.03-1.51-6.22.24-1.13.53-2.25.79-3.3.81-3.19,1.52-5.95.77-7.46-.82-1.64-2.17-2.59-4.2-2.9h0Z"/>
    <path class="cls-1" d="M25.84,38.52h-.12c-3.42-.11-6.14-4.51-8.14-7.73-.59-.96-1.1-1.78-1.52-2.33-2.1-2.68-4.9-2.37-5.44-2.28l-.36.05-.38-.67.27-.31c2.18-2.21,4.44-2.94,6.91-2.24,1.98.57,3.62,3.1,5.54,6.03.59.9,1.21,1.86,1.87,2.8,2.48,3.53,5.64,2.59,5.78,2.55l1.44-.46-.88,1.23c-1.58,2.22-3.26,3.35-4.98,3.35h.01ZM11.8,25.13c1.36.08,3.41.59,5.05,2.71.46.59.98,1.43,1.59,2.41,1.87,3.02,4.43,7.17,7.3,7.26,1.14.04,2.34-.62,3.52-1.97-1.4.03-3.73-.42-5.62-3.1-.67-.96-1.29-1.91-1.89-2.83-1.8-2.76-3.37-5.15-4.97-5.62-1.76-.5-3.37-.15-4.98,1.13Z"/>
    <path class="cls-1" d="M9.71,44.08l-.74-.2-.04-.4c-.05-3.11.98-5.24,3.21-6.52,1.78-1.02,4.75-.44,8.19.22,1.06.2,2.18.42,3.31.61,4.27.67,5.79-2.26,5.85-2.38l.67-1.35.27,1.48c.51,2.75.12,4.77-1.16,5.99-2.45,2.37-7.52,1.27-11.21.46-1.09-.24-2.05-.44-2.73-.53-3.39-.38-5.12,1.87-5.43,2.32l-.22.31h.03ZM14.74,37.4c-.85,0-1.56.12-2.09.43-1.59.92-2.45,2.32-2.65,4.36,1-.92,2.8-2.02,5.47-1.74.74.08,1.71.3,2.84.54,3.48.75,8.23,1.8,10.29-.19.84-.81,1.19-2.11,1.02-3.89-.97,1.04-2.9,2.38-6.13,1.87-1.14-.19-2.28-.4-3.34-.61-2.05-.4-3.93-.77-5.4-.77h-.01Z"/>
  </g>
  <g id="_Слой_13" data-name=" Слой 13">
    <rect class="cls-2" x="27.81" y="6.32" width="5.32" height="5.32" transform="translate(2.57 24.18) rotate(-45)"/>
  </g>
  <g id="_Слой_13-2" data-name=" Слой 13">
    <polygon class="cls-2" points="57.12 25.99 57.12 41.24 58.32 41.24 58.32 26.91 57.12 25.99"/>
    <path class="cls-2" d="M57.12,22.38v-4.98s10.1,7.39,14.64,17.32c0,0,5.74-11.26,16.46-17.32v23.84h-3.19v-18.18s-8.66,6.03-13.27,18.18c0,0-6.75-13.05-14.64-18.86Z"/>
    <path class="cls-2" d="M101.36,40.22c-6.72-.15-5.93-7.58-5.93-7.58h15.77c0-4.75-4.4-8.61-9.85-8.61s-9.85,3.85-9.85,8.61,4.4,8.61,9.85,8.61c3.77,0,7.04-1.85,8.7-4.57l-.69-.46s-2.05,4.12-8.01,4h0ZM101.36,24.66c6.26-.07,5.95,7.14,5.95,7.14h-11.93s-.3-7.07,5.98-7.14Z"/>
    <path class="cls-2" d="M113.77,24.03v17.21h3.49v-13.73c0-1.93-1.56-3.49-3.49-3.49h0Z"/>
    <path class="cls-2" d="M117.2,26.95s4.36-5.24,10.92-1.87c0,0,2.65,1.29,2.77,5.62v10.56h-3.31v-10.86s.13-3.72-2.84-4.96-7.56,2.82-7.56,2.82v-1.29h.01Z"/>
  </g>
  <g>
    <path class="cls-2" d="M177.94,33.83l-2.51,7.59h-3.22l8.2-24.13h3.76l8.23,24.13h-3.33l-2.58-7.59h-8.56ZM185.86,31.4l-2.36-6.94c-.54-1.58-.89-3.01-1.25-4.4h-.07c-.36,1.43-.75,2.9-1.22,4.37l-2.36,6.98h7.27Z"/>
    <path class="cls-2" d="M199.28,19.12v4.98h4.51v2.4h-4.51v9.34c0,2.15.61,3.36,2.36,3.36.82,0,1.43-.11,1.83-.21l.14,2.36c-.61.25-1.58.43-2.79.43-1.47,0-2.65-.47-3.4-1.33-.89-.93-1.22-2.47-1.22-4.51v-9.45h-2.68v-2.4h2.68v-4.15l3.08-.82Z"/>
  </g>
  <g>
    <path class="cls-2" d="M217.91,24.51l3.4,9.74c.57,1.58,1.04,3.01,1.4,4.44h.11c.39-1.43.9-2.86,1.47-4.44l3.37-9.74h3.29l-6.8,17.33h-3.01l-6.59-17.33h3.36Z"/>
    <path class="cls-2" d="M243.37,41.83l-.25-2.18h-.11c-.97,1.36-2.83,2.58-5.3,2.58-3.51,0-5.3-2.47-5.3-4.98,0-4.19,3.72-6.48,10.42-6.44v-.36c0-1.43-.39-4.01-3.94-4.01-1.61,0-3.29.5-4.51,1.29l-.72-2.08c1.43-.93,3.51-1.54,5.69-1.54,5.3,0,6.59,3.62,6.59,7.09v6.48c0,1.5.07,2.97.29,4.15h-2.86ZM242.9,32.99c-3.44-.07-7.34.54-7.34,3.9,0,2.04,1.36,3.01,2.97,3.01,2.26,0,3.69-1.43,4.19-2.9.11-.32.18-.68.18-1v-3.01Z"/>
  </g>
  <path class="cls-2" d="M139.98,25.97v9.4c0,1.16.26,2,.78,2.54.52.53,1.21.8,2.06.8.92,0,1.89-.21,2.91-.64v2.59c-1.04.45-2.27.67-3.69.67-3.48,0-5.21-1.9-5.21-5.71v-9.65h-3.62v-2.73h3.62v-4.15h3.16v4.15h5.75v2.73h-5.75Z"/>
  <path class="cls-2" d="M153.74,41.51c-1.84,0-3.3-.45-4.38-1.35-1.08-.9-1.61-2.13-1.61-3.69,0-.78.13-1.47.39-2.08.26-.6.59-1.11.99-1.51s.95-.74,1.65-1.03c.7-.28,1.36-.51,1.99-.67.63-.17,1.43-.29,2.41-.37s1.82-.14,2.52-.16c.7-.02,1.59-.05,2.68-.07v-1.45c0-2.55-1.42-3.83-4.26-3.83-2.11,0-4,.75-5.67,2.23l-1.74-1.95c2.1-1.92,4.67-2.87,7.7-2.87,1.44,0,2.67.19,3.67.57,1,.38,1.74.89,2.22,1.54.47.65.8,1.29.99,1.93.19.64.28,1.33.28,2.06v12.17h-3.19v-3.12c-1.94,2.44-4.15,3.65-6.63,3.65ZM154.52,39.06c2.22,0,4.17-1.26,5.85-3.79v-2.62c-2.27,0-4.16.13-5.67.39-.47.07-.95.2-1.42.39-.47.19-.95.54-1.44,1.05s-.73,1.11-.73,1.79c0,.97.35,1.68,1.05,2.13s1.48.67,2.36.67Z"/>
  <rect class="cls-2" x="207.64" y="24.53" width="3.41" height="16.97"/>
  <rect class="cls-2" x="207.44" y="18.32" width="3.78" height="3.78" transform="translate(47.02 153.95) rotate(-45)"/>
</svg>