<?xml version="1.0" encoding="UTF-8"?>
<svg xmlns="http://www.w3.org/2000/svg" viewBox="0 0 153.7 35.22">
  <defs>
    <style>
      .cls-1 {
        fill: #b39ddb;
      }

      .cls-2 {
        fill: #fff;
      }
    </style>
  </defs>
  <g id="_Слой_15" data-name="Слой 15">
    <path class="cls-1" d="M21.82,25.5c-.37,0-.77-.03-1.19-.08l-1.11-.14.97-.56c.09-.05,2.2-1.31,1.52-4.44-.18-.83-.39-1.65-.59-2.43-.64-2.52-1.2-4.69-.51-6.06.85-1.7,2.39-2.57,4.69-2.66h.27s.22.52.22.52l-.23.2c-.32.25-1.9,1.63-1.49,4.12.08.51.28,1.2.5,2,.76,2.7,1.8,6.41.14,8.33-.68.79-1.76,1.19-3.2,1.19ZM21.61,24.75c1.32.04,2.28-.27,2.84-.93,1.39-1.62.42-5.1-.3-7.64-.23-.82-.43-1.53-.52-2.08-.33-1.96.42-3.34,1.06-4.12-1.51.24-2.51.94-3.12,2.15-.56,1.11-.04,3.16.57,5.54.2.79.41,1.61.59,2.45.52,2.37-.4,3.86-1.12,4.62Z"/>
    <path class="cls-1" d="M24.12,27.95c-1.28,0-2.53-.84-3.7-2.49l-.65-.91,1.07.34c.1.03,2.45.74,4.29-1.89.49-.7.95-1.4,1.39-2.08,1.42-2.18,2.65-4.06,4.11-4.48,1.83-.52,3.51.02,5.13,1.66l.19.19-.24.52-.29-.03c-.4-.07-2.49-.3-4.04,1.69-.32.41-.69,1.02-1.13,1.72-1.48,2.39-3.5,5.66-6.04,5.74-.03,0-.06,0-.09,0ZM21.58,25.73c.87,1,1.74,1.51,2.61,1.46,2.13-.07,4.04-3.14,5.42-5.39.45-.73.84-1.35,1.18-1.79,1.23-1.57,2.74-1.96,3.75-2.01-1.2-.95-2.39-1.21-3.7-.84-1.2.34-2.35,2.12-3.69,4.17-.44.68-.91,1.39-1.4,2.1-1.4,1.99-3.11,2.32-4.17,2.3Z"/>
    <path class="cls-1" d="M36.12,32.09l-.18-.23c-.23-.34-1.51-2-4.03-1.73-.51.06-1.21.21-2.03.39-2.74.6-6.5,1.43-8.32-.34-.95-.91-1.23-2.41-.86-4.45l.2-1.1.5,1c.05.09,1.18,2.28,4.34,1.77.84-.13,1.67-.29,2.46-.45,2.55-.5,4.76-.92,6.08-.16,1.65.95,2.43,2.53,2.38,4.84v.27s-.55.19-.55.19ZM32.46,29.35c1.64,0,2.77.72,3.43,1.32-.15-1.52-.79-2.56-1.97-3.24-1.08-.62-3.16-.22-5.56.25-.8.15-1.63.32-2.48.45-2.4.38-3.83-.62-4.55-1.39-.11,1.32.14,2.29.76,2.89,1.53,1.48,5.06.71,7.64.14.83-.18,1.56-.34,2.11-.4.22-.02.43-.03.63-.03Z"/>
    <path class="cls-1" d="M19.53,25.5c-1.45,0-2.52-.4-3.2-1.19-1.66-1.92-.62-5.62.14-8.33.23-.8.42-1.49.5-2,.42-2.49-1.17-3.87-1.49-4.12l-.22-.17.18-.54h.31c2.3.08,3.84.95,4.69,2.65.68,1.36.13,3.54-.51,6.06-.2.78-.41,1.6-.59,2.43-.68,3.13,1.43,4.39,1.52,4.44l.97.56-1.11.14c-.42.05-.82.08-1.19.08ZM16.66,9.98c.64.78,1.38,2.16,1.06,4.12-.09.55-.29,1.26-.52,2.08-.71,2.54-1.69,6.02-.3,7.64.56.65,1.52.97,2.84.93-.73-.76-1.64-2.25-1.13-4.62.18-.84.39-1.67.59-2.45.6-2.37,1.13-4.42.57-5.54-.61-1.22-1.61-1.92-3.12-2.15Z"/>
    <path class="cls-1" d="M17.23,27.95s-.06,0-.09,0c-2.54-.08-4.56-3.35-6.04-5.74-.44-.71-.82-1.32-1.13-1.72-1.56-2-3.64-1.76-4.04-1.69l-.27.05-.27-.5.2-.23c1.62-1.64,3.3-2.18,5.13-1.66,1.47.42,2.69,2.3,4.11,4.48.44.67.9,1.38,1.39,2.08,1.84,2.62,4.2,1.92,4.29,1.89l1.07-.34-.65.91c-1.17,1.65-2.42,2.49-3.7,2.49ZM6.81,18.01c1.01.06,2.52.44,3.75,2.01.34.44.73,1.06,1.18,1.79,1.39,2.24,3.29,5.32,5.42,5.39.87.03,1.74-.46,2.61-1.46-1.05.01-2.77-.31-4.17-2.3-.5-.71-.96-1.42-1.4-2.1-1.34-2.05-2.5-3.82-3.69-4.17-1.31-.38-2.5-.11-3.7.84Z"/>
    <path class="cls-1" d="M5.26,32.08l-.55-.15-.03-.3c-.04-2.31.73-3.89,2.38-4.84,1.32-.76,3.53-.33,6.08.16.79.15,1.62.31,2.46.45,3.17.51,4.3-1.68,4.34-1.77l.5-1,.2,1.1c.38,2.04.09,3.54-.86,4.45-1.82,1.76-5.58.94-8.32.34-.81-.18-1.52-.33-2.03-.39-2.51-.28-3.8,1.39-4.03,1.72l-.16.23ZM8.99,27.12c-.63,0-1.16.09-1.55.32-1.18.68-1.82,1.72-1.97,3.24.74-.68,2.08-1.5,4.06-1.29.55.06,1.27.22,2.11.4,2.58.56,6.11,1.34,7.64-.14.62-.6.88-1.57.76-2.89-.72.77-2.15,1.77-4.55,1.39-.85-.14-1.69-.3-2.48-.45-1.52-.3-2.92-.57-4.01-.57Z"/>
  </g>
  <g id="_Слой_13" data-name="Слой 13">
    <polygon class="cls-2" points="39.11 18.36 39.11 29.68 40 29.68 40 19.03 39.11 18.36"/>
    <path class="cls-2" d="M39.11,15.68v-3.7s7.5,5.49,10.87,12.86c0,0,4.26-8.36,12.22-12.86v17.7h-2.37v-13.5s-6.43,4.48-9.85,13.5c0,0-5.01-9.69-10.87-14Z"/>
    <rect class="cls-2" x="65.13" y="17.08" width="2.53" height="12.6"/>
    <path class="cls-2" d="M97.03,11.98h2.53v17.7h-.11c-1.34,0-2.42-1.08-2.42-2.42v-15.28h0Z"/>
    <rect class="cls-2" x="80.68" y="22.18" width="2.53" height="7.5"/>
    <path class="cls-2" d="M70.33,17.08h0c1.4,0,2.53,1.13,2.53,2.53v10.07h-2.53v-12.6h0Z"/>
    <rect class="cls-2" x="64.99" y="12.46" width="2.81" height="2.81" transform="translate(29.25 -42.88) rotate(45)"/>
    <rect class="cls-2" x="18.7" y="4.05" width="3.95" height="3.95" transform="translate(10.31 -12.86) rotate(45)"/>
    <path class="cls-2" d="M72.86,19.61s2.67-2.6,5.35-1.74,2.47,4.32,2.47,4.32h2.53s.27-4.12-3.76-5.1-6.65,2-6.65,2l.06.53Z"/>
    <path class="cls-2" d="M97.03,19.01s-1.29-1.3-4.41-1.23-4.52,1.93-4.49,5.61,1.89,5.67,4.45,5.7,4.45-1.43,4.45-1.43l.46.58s-1.68,1.75-4.94,1.71-7.35-1.29-7.38-6.56,4.32-6.7,7.42-6.5,4.69,1.46,4.69,1.46l-.24.67Z"/>
    <polygon class="cls-2" points="101 11.98 101 12.93 114.55 12.93 101 29.68 104 29.68 117.96 11.98 101 11.98"/>
    <polygon class="cls-2" points="106.24 29.68 118.34 29.68 118.34 28.95 106.83 28.95 106.24 29.68"/>
    <path class="cls-2" d="M125.66,28.92c-4.99-.11-4.4-5.63-4.4-5.63h11.71c0-3.53-3.27-6.39-7.31-6.39s-7.31,2.86-7.31,6.39,3.27,6.39,7.31,6.39c2.8,0,5.23-1.37,6.46-3.39l-.51-.34s-1.52,3.06-5.95,2.97ZM125.66,17.37c4.65-.05,4.42,5.3,4.42,5.3h-8.86s-.22-5.25,4.44-5.3Z"/>
    <path class="cls-2" d="M134.87,16.9v12.78h2.59v-10.19c0-1.43-1.16-2.59-2.59-2.59h0Z"/>
    <path class="cls-2" d="M137.42,19.07s3.24-3.89,8.11-1.39c0,0,1.97.96,2.06,4.17v7.84h-2.46v-8.06s.1-2.76-2.11-3.68-5.61,2.09-5.61,2.09v-.96Z"/>
  </g>
</svg>